<?xml version="1.0" standalone="no"?>
<!DOCTYPE svg PUBLIC "-//W3C//DTD SVG 20010904//EN"
 "http://www.w3.org/TR/2001/REC-SVG-20010904/DTD/svg10.dtd">
<svg version="1.0" xmlns="http://www.w3.org/2000/svg"
 width="1885.000000pt" height="611.000000pt" viewBox="0 0 1885.000000 611.000000"
 preserveAspectRatio="xMidYMid meet">
<metadata>
Created by potrace 1.16, written by Peter Selinger 2001-2019
</metadata>
<g transform="translate(0.000000,611.000000) scale(0.100000,-0.100000)"
fill="#000000" stroke="none">
<path d="M2825 5180 c-128 -26 -239 -98 -321 -208 -10 -14 -20 -13 -83 8 -182
58 -375 8 -509 -134 -222 -235 -155 -626 132 -770 67 -33 157 -56 223 -56 36
0 53 -4 53 -12 0 -7 -16 -188 -36 -402 -19 -213 -34 -390 -31 -392 2 -2 53 7
113 21 152 35 402 72 574 86 144 12 394 7 494 -10 l48 -8 -6 81 c-3 45 -8 187
-11 316 -3 129 -8 250 -11 268 -5 32 -4 32 34 32 110 0 281 89 352 184 178
236 130 553 -108 713 -95 64 -174 85 -303 81 l-106 -3 -59 60 c-118 119 -287
175 -439 145z m169 -95 c115 -24 211 -96 261 -196 l24 -46 53 18 c144 50 331
-6 422 -126 66 -86 97 -203 80 -302 l-8 -48 -7 67 c-14 133 -84 234 -197 290
-60 30 -76 33 -152 33 -83 0 -112 -9 -211 -62 -4 -2 -17 17 -30 43 -28 59 -81
111 -145 144 -42 21 -63 25 -139 25 -75 0 -98 -4 -135 -24 -107 -56 -170 -150
-178 -267 -6 -89 13 -149 68 -222 l41 -54 -45 31 c-100 69 -157 171 -164 293
l-5 78 -39 11 c-106 28 -242 -41 -294 -149 -29 -59 -30 -158 -4 -220 23 -54
91 -125 138 -144 64 -26 152 -27 214 -3 15 6 16 -23 11 -386 l-6 -392 46 7
c72 11 398 8 490 -4 45 -6 123 -21 172 -33 l90 -22 -270 -6 c-271 -7 -414 -21
-603 -60 -52 -10 -98 -19 -104 -19 -5 0 -7 18 -3 43 6 45 65 743 65 770 0 14
-4 14 -46 0 -68 -23 -193 -14 -266 19 -238 109 -302 415 -128 611 128 142 341
169 499 62 l52 -34 10 27 c20 56 45 95 91 142 68 69 152 106 273 119 6 0 41
-6 79 -14z"/>
<path d="M4850 4838 c-91 -74 -349 -282 -575 -462 -225 -181 -420 -339 -433
-351 l-23 -21 27 -85 c28 -88 68 -176 112 -242 l26 -40 -36 -32 c-21 -17 -63
-52 -95 -77 -55 -43 -60 -45 -83 -32 -34 18 -69 17 -77 -2 -3 -9 -1 -31 4 -49
l11 -34 -97 -79 -96 -79 -195 5 c-304 7 -663 -27 -962 -91 l-107 -23 -81 63
c-79 63 -80 64 -74 101 8 52 -8 65 -60 47 l-39 -14 -106 81 c-58 45 -108 83
-110 85 -2 1 12 38 32 80 50 109 61 158 55 266 -9 150 -73 275 -213 412 -222
217 -558 347 -864 333 -130 -6 -204 -32 -266 -92 -73 -70 -93 -191 -60 -362
74 -389 338 -743 623 -838 199 -66 372 -48 532 55 l63 40 36 -33 c146 -133
170 -160 160 -185 -5 -13 -9 -35 -9 -49 0 -19 5 -24 25 -24 13 0 36 5 50 12
22 10 29 8 55 -17 l30 -29 -52 -28 c-29 -16 -63 -39 -77 -51 -34 -31 -60 -95
-61 -147 -1 -25 -7 -62 -15 -83 -13 -38 -13 -38 7 -20 28 25 53 78 68 143 7
30 17 63 22 72 45 89 606 225 1063 258 250 18 561 7 765 -26 109 -18 149 -33
179 -65 33 -36 25 -39 -37 -14 -144 59 -433 84 -745 66 -187 -10 -372 -30
-364 -38 3 -2 87 2 188 8 222 14 568 6 694 -16 156 -27 279 -74 272 -104 -4
-19 -1 -19 -92 12 -133 46 -240 59 -510 62 l-250 3 190 -8 c275 -12 446 -41
583 -100 47 -20 62 -37 46 -52 -3 -3 -28 3 -56 13 -53 21 -261 60 -306 58 -19
-1 -13 -4 18 -11 107 -22 246 -60 291 -79 44 -19 49 -25 49 -54 0 -18 9 -44
20 -58 12 -14 28 -39 36 -54 l16 -28 -6 35 c-15 93 -17 137 -8 161 l10 26 94
-13 c52 -7 170 -29 262 -49 93 -20 170 -34 172 -32 4 3 -288 75 -424 103 -76
16 -82 19 -75 38 4 12 8 41 8 65 0 38 -4 47 -37 74 -22 17 -68 39 -113 52
l-75 21 28 27 c26 25 31 26 60 16 18 -6 39 -8 47 -5 17 6 20 48 6 75 -8 14 6
33 78 105 l88 88 69 -53 c66 -50 202 -122 254 -134 27 -6 -5 -37 850 828 l255
257 -40 40 -40 39 -146 -132 c-80 -73 -235 -213 -345 -312 -109 -99 -257 -233
-329 -298 l-129 -119 -24 29 -23 28 69 65 c257 242 842 815 842 825 0 6 -11
22 -24 34 -24 23 -25 23 -48 5 -22 -17 -682 -600 -857 -756 -42 -38 -78 -68
-81 -67 -3 0 -17 15 -31 32 l-26 32 468 430 c258 236 469 432 469 435 0 3 -13
20 -28 38 l-27 32 -370 -316 c-203 -174 -422 -360 -486 -414 l-116 -99 -27 28
-27 28 208 195 c256 239 223 208 496 461 125 116 227 213 227 217 0 3 -12 20
-27 38 l-28 33 -165 -133z m-4034 -728 c563 -482 657 -560 673 -560 20 0 98
46 139 81 37 32 101 115 114 149 6 14 17 41 25 60 13 34 14 32 9 -40 -12 -188
-127 -350 -289 -407 -84 -29 -250 -24 -346 10 -244 88 -425 288 -522 578 -31
92 -69 271 -69 322 0 36 -15 47 266 -193z m3347 28 l-133 -133 108 -120 c59
-66 160 -178 224 -250 l116 -130 -37 -32 c-20 -18 -41 -32 -47 -33 -24 0 -152
72 -212 120 -34 28 -85 81 -113 118 -56 75 -139 233 -142 273 -2 23 22 46 178
172 99 81 182 146 185 147 3 0 -55 -60 -127 -132z"/>
<path d="M6499 3359 c-219 -15 -401 -54 -474 -100 -80 -51 -149 -166 -143
-242 l3 -42 45 2 c25 0 95 17 156 37 61 20 123 36 138 36 l28 0 -30 -25 c-41
-34 -56 -76 -183 -505 -61 -206 -126 -427 -145 -490 -67 -224 -68 -253 -10
-289 82 -51 347 -89 538 -77 261 16 452 83 636 223 242 185 402 524 402 852
-1 257 -105 446 -300 543 -159 80 -338 101 -661 77z m283 -320 c140 -72 228
-265 228 -502 -1 -211 -68 -389 -200 -527 -111 -115 -196 -150 -385 -157
l-129 -6 19 29 c45 68 65 114 85 194 12 47 75 288 141 537 65 248 119 454 119
458 0 13 80 -5 122 -26z"/>
<path d="M10585 3353 c-174 -12 -258 -43 -324 -122 -102 -122 -108 -224 -16
-247 29 -7 139 17 320 71 123 37 269 64 281 52 8 -7 -25 -189 -66 -367 -44
-191 -154 -566 -201 -682 -80 -199 -70 -181 -91 -161 -40 36 -91 116 -153 240
-69 138 -77 150 -115 176 -34 24 -57 21 -85 -9 -78 -84 -116 -268 -79 -378 38
-110 184 -219 336 -250 118 -24 227 -17 302 21 39 20 113 89 146 138 208 303
530 1140 530 1378 0 53 -1 55 -36 72 -113 53 -475 86 -749 68z"/>
<path d="M13575 3353 c-174 -12 -258 -43 -324 -122 -102 -122 -108 -224 -16
-247 29 -7 139 17 320 71 123 37 269 64 281 52 8 -7 -25 -189 -66 -367 -44
-191 -154 -566 -201 -682 -80 -199 -70 -181 -91 -161 -40 36 -91 116 -153 240
-69 138 -77 150 -115 176 -34 24 -57 21 -85 -9 -78 -84 -116 -268 -79 -378 38
-110 184 -219 336 -250 118 -24 227 -17 302 21 39 20 113 89 146 138 208 303
530 1140 530 1378 0 53 -1 55 -36 72 -113 53 -475 86 -749 68z"/>
<path d="M16600 3338 c-36 -5 -85 -19 -110 -31 -41 -20 -49 -31 -95 -123 -168
-339 -345 -1021 -321 -1233 15 -131 71 -219 168 -262 79 -34 192 -33 271 3
142 66 268 207 428 477 l43 75 13 -114 c7 -63 20 -141 28 -174 47 -188 173
-312 296 -292 64 10 165 45 193 67 34 27 34 56 -3 237 -57 276 -64 518 -25
904 18 177 18 178 -2 205 -27 36 -64 47 -130 38 -99 -12 -134 -46 -242 -235
-234 -409 -482 -756 -536 -748 -19 3 -21 9 -19 63 1 62 49 273 104 463 30 106
86 264 153 437 37 93 46 168 25 207 -24 44 -99 56 -239 36z"/>
<path d="M8500 3320 c-200 -54 -437 -213 -597 -398 -232 -271 -366 -598 -334
-813 39 -250 240 -418 535 -445 125 -11 355 51 571 156 149 72 181 98 220 183
36 79 59 168 53 207 -5 37 -27 30 -168 -50 -209 -120 -405 -200 -492 -200 -21
0 -52 7 -68 15 -57 29 -110 127 -110 201 l0 34 248 0 c248 0 248 0 301 26 98
49 231 190 231 244 0 54 -3 55 -395 58 l-363 3 9 41 c19 82 71 197 128 285 89
135 286 313 347 313 41 0 44 -39 9 -174 -31 -124 -80 -226 -144 -299 -28 -32
-51 -67 -51 -78 0 -74 208 -33 366 73 131 88 188 189 189 339 0 82 -2 89 -35
138 -90 132 -271 189 -450 141z"/>
<path d="M9664 3325 c-160 -29 -198 -80 -308 -407 -127 -376 -264 -909 -281
-1088 -8 -81 12 -126 67 -153 77 -38 497 -33 593 8 71 29 189 181 202 258 5
32 3 37 -19 42 -14 4 -81 -7 -154 -24 -166 -39 -262 -56 -270 -48 -16 15 112
376 261 737 169 412 222 601 183 653 -27 37 -143 46 -274 22z"/>
<path d="M12485 3326 c-147 -34 -325 -124 -481 -244 -207 -159 -372 -394 -460
-659 -82 -245 -44 -442 116 -604 109 -110 264 -168 416 -155 206 18 548 159
681 280 97 88 191 322 138 342 -21 8 -76 -18 -215 -102 -134 -80 -333 -176
-428 -204 -52 -16 -90 -21 -128 -18 -92 8 -113 47 -114 214 0 175 48 361 142
549 105 209 281 422 342 413 19 -3 21 -11 24 -77 7 -180 -90 -510 -201 -684
-49 -77 -54 -100 -27 -127 42 -42 141 -10 267 84 258 194 426 568 358 801 -21
76 -95 153 -171 179 -68 23 -186 29 -259 12z"/>
<path d="M15475 3325 c-165 -30 -344 -105 -466 -196 -93 -69 -245 -230 -312
-331 -286 -430 -284 -832 7 -1026 230 -154 540 -159 788 -11 151 89 316 283
387 453 102 246 129 534 68 743 -35 121 -65 158 -141 170 -45 7 -151 -42 -239
-112 -112 -89 -119 -130 -44 -261 129 -222 132 -424 12 -641 -44 -79 -152
-191 -210 -218 -170 -79 -314 31 -356 270 -15 90 -7 342 15 420 31 110 109
254 180 332 103 111 168 155 288 193 117 38 181 67 227 106 38 32 62 75 52 93
-19 31 -137 38 -256 16z"/>
<path d="M18295 3326 c-362 -69 -592 -415 -457 -688 39 -79 128 -182 255 -294
137 -121 200 -218 213 -328 12 -100 -31 -176 -98 -176 -68 0 -131 74 -168 195
-53 174 -74 202 -145 191 -105 -16 -247 -119 -260 -190 -21 -108 154 -291 354
-372 203 -82 391 -43 552 116 127 126 186 270 177 436 -4 71 -10 94 -42 160
-33 65 -62 101 -193 236 -175 179 -196 213 -196 318 -1 96 56 210 104 210 25
0 64 -51 90 -117 21 -51 24 -76 24 -195 0 -94 4 -141 12 -149 37 -37 197 101
255 218 29 60 33 77 33 148 0 71 -4 86 -31 135 -35 63 -99 112 -177 135 -73
22 -218 27 -302 11z"/>
<path d="M2810 2853 c-481 -27 -948 -131 -1014 -225 -30 -43 -13 -92 45 -127
l29 -18 -112 -36 c-177 -57 -229 -99 -246 -200 l-7 -42 -75 -18 c-179 -42
-429 -122 -418 -133 2 -2 39 8 83 21 108 34 226 63 319 79 l78 13 -7 -26 c-3
-14 -19 -55 -36 -90 -16 -35 -27 -66 -25 -68 2 -3 9 4 15 15 12 23 59 40 256
93 77 21 132 38 123 38 -22 1 -206 -35 -275 -53 -50 -13 -52 -13 -43 4 20 38
241 104 544 161 124 23 137 28 76 23 -152 -12 -470 -74 -566 -111 -14 -5 -15
-3 -5 14 31 60 456 158 846 197 236 24 226 23 169 24 -66 2 -287 -15 -444 -34
-188 -23 -416 -75 -537 -121 -22 -9 -14 26 10 41 35 23 193 72 304 95 189 39
403 66 803 101 92 8 82 8 -75 4 -429 -11 -820 -68 -990 -143 -57 -25 -71 -19
-32 14 57 49 331 118 617 156 533 69 1384 33 1771 -76 113 -32 212 -78 239
-112 21 -28 27 -87 9 -99 -6 -3 -29 -34 -50 -67 -45 -70 -51 -119 -19 -160 28
-35 59 -108 69 -160 l8 -42 8 30 c5 18 3 50 -5 85 -7 30 -15 81 -17 113 -4 53
-2 64 30 115 87 142 67 198 -98 273 -146 66 -510 134 -861 160 -88 7 -160 13
-162 14 -1 1 50 54 114 117 115 116 115 116 157 111 129 -14 272 -37 342 -54
133 -34 147 -51 58 -69 -60 -13 -103 -29 -103 -39 0 -4 82 -26 183 -50 279
-66 631 -187 808 -277 28 -14 53 -23 56 -21 2 3 -5 36 -17 73 -23 76 -28 239
-10 333 5 29 10 59 10 65 -1 19 -28 -36 -51 -102 -16 -49 -25 -62 -37 -58 -57
17 -145 37 -148 34 -2 -2 34 -16 80 -31 69 -23 83 -31 79 -45 -4 -17 -15 -15
-146 20 -78 21 -148 38 -157 38 -8 0 48 -22 125 -49 182 -63 175 -60 175 -82
0 -10 -2 -19 -5 -19 -3 0 -58 15 -123 34 -128 38 -276 76 -289 75 -4 0 42 -16
102 -35 61 -20 156 -51 213 -71 90 -31 102 -38 102 -59 l0 -23 -67 26 c-154
59 -516 161 -746 210 -56 12 -46 27 25 38 83 13 89 34 19 70 -162 82 -696 140
-1081 118z m160 -38 c0 -6 -136 -115 -145 -115 -4 0 -37 24 -73 53 l-66 52 44
6 c55 7 240 11 240 4z m-511 -147 l102 -97 -43 -5 c-24 -3 -119 -12 -213 -21
-93 -9 -217 -25 -275 -35 -111 -19 -119 -18 -162 12 -35 24 -37 66 -5 96 27
25 110 63 192 87 76 22 276 65 291 62 6 -1 57 -46 113 -99z"/>
<path d="M2460 2063 c-508 -10 -1060 -107 -1060 -188 0 -21 28 -33 106 -45 95
-14 114 -19 114 -29 0 -11 -52 -23 -266 -61 -189 -33 -312 -63 -356 -86 -36
-19 -41 -16 -25 16 13 26 55 45 192 85 54 16 70 24 50 24 -28 1 -169 -30 -207
-44 -12 -5 -18 -2 -18 8 0 21 22 37 93 63 71 26 67 29 -16 10 -31 -7 -59 -11
-61 -7 -1 3 -3 35 -4 70 -1 63 -12 103 -12 43 0 -49 -46 -181 -85 -246 -20
-33 -61 -88 -92 -124 l-56 -64 73 37 c157 79 326 135 635 209 143 34 215 59
215 73 -1 29 -14 34 -177 59 -18 3 -33 9 -33 13 0 13 58 37 135 55 39 10 78
20 89 23 17 5 18 1 13 -33 l-6 -39 19 41 19 41 93 12 c51 7 101 15 112 18 12
3 16 1 12 -6 -4 -6 -116 -99 -249 -207 -268 -218 -263 -210 -254 -326 10 -143
93 -217 263 -234 l65 -7 407 408 407 407 180 -6 c99 -3 225 -9 280 -13 l100
-6 150 -141 c82 -78 244 -231 360 -341 116 -110 283 -269 372 -352 l161 -153
60 0 c102 0 187 42 223 112 28 55 41 127 34 190 l-7 57 -210 163 c-167 130
-205 164 -186 166 165 22 99 84 -192 180 -308 102 -645 157 -1030 167 -107 3
-222 7 -255 8 -33 1 -112 1 -175 0z m-245 -121 c-44 -42 -143 -135 -220 -206
-77 -72 -163 -152 -192 -180 -51 -49 -53 -49 -73 -31 -20 18 -28 87 -12 111 4
7 108 95 232 198 l225 186 60 0 60 0 -80 -78z m1266 -13 c30 -25 211 -177 402
-338 l348 -294 -22 -23 c-17 -18 -33 -24 -64 -24 -40 0 -48 6 -231 178 -105
97 -281 262 -392 366 -111 103 -202 189 -202 190 0 1 24 -1 54 -4 45 -5 63
-13 107 -51z"/>
</g>
</svg>
